<svg xmlns="http://www.w3.org/2000/svg" xmlns:xlink="http://www.w3.org/1999/xlink" width="150" zoomAndPan="magnify" viewBox="0 0 112.5 112.499997" height="150" preserveAspectRatio="xMidYMid meet" version="1.0"><defs><clipPath id="32bdf398e5"><path d="M 0 0 L 112.003906 0 L 112.003906 112.003906 L 0 112.003906 Z M 0 0 " clip-rule="nonzero"/></clipPath><clipPath id="22a75fb22d"><path d="M 76 32 L 100 32 L 100 79 L 76 79 Z M 76 32 " clip-rule="nonzero"/></clipPath><clipPath id="2c4e0cb740"><path d="M 53.015625 55.546875 L 76.246094 32.316406 L 99.480469 55.546875 L 76.246094 78.777344 Z M 53.015625 55.546875 " clip-rule="nonzero"/></clipPath><clipPath id="a5fa0965f4"><path d="M 99.941406 55.546875 L 76.710938 78.777344 L 53.480469 55.546875 L 76.710938 32.316406 Z M 99.941406 55.546875 " clip-rule="nonzero"/></clipPath><clipPath id="ce23a1ab95"><path d="M 50 49 L 66 49 L 66 74.648438 L 50 74.648438 Z M 50 49 " clip-rule="nonzero"/></clipPath><clipPath id="e9d86b7618"><path d="M 44 46.273438 L 53 46.273438 L 53 57 L 44 57 Z M 44 46.273438 " clip-rule="nonzero"/></clipPath><clipPath id="268e7f6b9b"><path d="M 32.53125 32.082031 L 79.46875 32.082031 L 79.46875 79.015625 L 32.53125 79.015625 Z M 32.53125 32.082031 " clip-rule="nonzero"/></clipPath><clipPath id="6431a81453"><path d="M 56 32.082031 C 43.039062 32.082031 32.53125 42.589844 32.53125 55.550781 C 32.53125 68.511719 43.039062 79.015625 56 79.015625 C 68.960938 79.015625 79.46875 68.511719 79.46875 55.550781 C 79.46875 42.589844 68.960938 32.082031 56 32.082031 Z M 56 32.082031 " clip-rule="nonzero"/></clipPath><clipPath id="f8334bd514"><path d="M 12 32 L 37 32 L 37 80 L 12 80 Z M 12 32 " clip-rule="nonzero"/></clipPath><clipPath id="2efe54ad3f"><path d="M 12.050781 56.683594 L 34.632812 31.804688 L 59.511719 54.390625 L 36.925781 79.269531 Z M 12.050781 56.683594 " clip-rule="nonzero"/></clipPath><clipPath id="42a314971a"><path d="M 12.050781 56.683594 L 34.632812 31.804688 L 59.511719 54.390625 L 36.925781 79.269531 Z M 12.050781 56.683594 " clip-rule="nonzero"/></clipPath></defs><g clip-path="url(#32bdf398e5)"><path fill="#ffffff" d="M 0 0 L 112.003906 0 L 112.003906 112.003906 L 0 112.003906 Z M 0 0 " fill-opacity="1" fill-rule="nonzero"/><path fill="#081c34" d="M 0 0 L 112.003906 0 L 112.003906 112.003906 L 0 112.003906 Z M 0 0 " fill-opacity="1" fill-rule="nonzero"/></g><g clip-path="url(#22a75fb22d)"><g clip-path="url(#2c4e0cb740)"><g clip-path="url(#a5fa0965f4)"><path fill="#ffffff" d="M 99.9375 55.546875 L 76.480469 79.003906 C 77.28125 78.207031 78.039062 77.367188 78.753906 76.492188 C 79.457031 75.628906 80.113281 74.734375 80.726562 73.804688 C 81.328125 72.894531 81.890625 71.945312 82.398438 70.980469 C 82.898438 70.023438 83.359375 69.035156 83.765625 68.035156 C 84.570312 66.042969 85.179688 63.996094 85.585938 61.886719 C 85.992188 59.792969 86.195312 57.679688 86.195312 55.546875 C 86.195312 53.417969 85.992188 51.304688 85.585938 49.210938 C 85.179688 47.101562 84.570312 45.054688 83.765625 43.0625 C 83.359375 42.0625 82.898438 41.074219 82.398438 40.117188 C 81.890625 39.152344 81.328125 38.203125 80.726562 37.292969 C 80.113281 36.363281 79.457031 35.46875 78.753906 34.605469 C 78.035156 33.726562 77.277344 32.886719 76.476562 32.085938 Z M 99.9375 55.546875 " fill-opacity="1" fill-rule="nonzero"/></g></g></g><path fill="#ffffff" d="M 67.339844 56.585938 L 66.964844 57.375 L 66.589844 58.160156 L 65.378906 60.707031 L 65.003906 61.496094 L 64.628906 62.28125 L 67.222656 63.40625 L 69.820312 57.828125 Z M 67.339844 56.585938 " fill-opacity="1" fill-rule="nonzero"/><g clip-path="url(#ce23a1ab95)"><path fill="#ffffff" d="M 61.566406 64.214844 L 62.441406 64.214844 L 62.441406 62.472656 L 61.566406 62.472656 L 61.566406 60.953125 L 63.03125 61.589844 L 63.40625 60.800781 L 63.78125 60.015625 L 65.03125 57.382812 L 65.40625 56.597656 L 65.78125 55.808594 L 53.859375 49.863281 L 53.140625 51.449219 L 51.640625 54.757812 L 50.921875 56.34375 L 59.824219 60.199219 L 59.824219 62.472656 L 58.949219 62.472656 L 58.949219 64.214844 L 59.824219 64.214844 L 59.824219 68.207031 L 55.898438 73.570312 L 57.300781 74.601562 L 59.824219 71.15625 L 59.824219 74.648438 L 61.566406 74.648438 L 61.566406 71.101562 L 64.199219 74.609375 L 65.589844 73.5625 L 61.566406 68.203125 Z M 61.566406 64.214844 " fill-opacity="1" fill-rule="nonzero"/></g><g clip-path="url(#e9d86b7618)"><path fill="#ffffff" d="M 48.421875 46.273438 L 44.652344 54.371094 L 48.980469 56.386719 L 49.277344 55.75 L 49.324219 55.652344 L 49.507812 55.257812 L 49.691406 54.859375 L 51.941406 49.878906 L 52.300781 49.085938 L 52.675781 48.253906 Z M 48.421875 46.273438 " fill-opacity="1" fill-rule="nonzero"/></g><g clip-path="url(#268e7f6b9b)"><g clip-path="url(#6431a81453)"><path stroke-linecap="butt" transform="matrix(0.746681, 0, 0, 0.746681, 32.531304, 32.081519)" fill="none" stroke-linejoin="miter" d="M 31.43067 0.00068541 C 14.072613 0.00068541 -0.000072774 14.073372 -0.000072774 31.431428 C -0.000072774 48.789485 14.072613 62.85694 31.43067 62.85694 C 48.788727 62.85694 62.861413 48.789485 62.861413 31.431428 C 62.861413 14.073372 48.788727 0.00068541 31.43067 0.00068541 Z M 31.43067 0.00068541 " stroke="#ffffff" stroke-width="22" stroke-opacity="1" stroke-miterlimit="4"/></g></g><g clip-path="url(#f8334bd514)"><g clip-path="url(#2efe54ad3f)"><g clip-path="url(#42a314971a)"><path fill="#ffffff" d="M 12.050781 56.679688 L 34.378906 32.085938 C 33.617188 32.925781 32.902344 33.800781 32.230469 34.710938 C 31.566406 35.605469 30.953125 36.535156 30.382812 37.492188 C 29.828125 38.429688 29.308594 39.410156 28.851562 40.398438 C 28.394531 41.378906 27.980469 42.390625 27.625 43.410156 C 26.914062 45.441406 26.40625 47.519531 26.101562 49.648438 C 25.796875 51.761719 25.695312 53.882812 25.796875 56.015625 C 25.902344 58.148438 26.207031 60.253906 26.710938 62.328125 C 27.222656 64.414062 27.929688 66.4375 28.832031 68.386719 C 29.285156 69.367188 29.792969 70.335938 30.339844 71.269531 C 30.894531 72.207031 31.503906 73.132812 32.148438 74.015625 C 32.808594 74.914062 33.507812 75.777344 34.253906 76.605469 C 35.011719 77.449219 35.8125 78.25 36.652344 79.015625 Z M 12.050781 56.679688 " fill-opacity="1" fill-rule="nonzero"/></g></g></g></svg>