<!DOCTYPE svg PUBLIC "-//W3C//DTD SVG 1.1//EN" "http://www.w3.org/Graphics/SVG/1.1/DTD/svg11.dtd">
<!-- Uploaded to: SVG Repo, www.svgrepo.com, Transformed by: SVG Repo Mixer Tools -->
<svg width="800px" height="800px" viewBox="0 0 20 20" xmlns="http://www.w3.org/2000/svg" fill="#000000">
<g id="SVGRepo_bgCarrier" stroke-width="0"/>
<g id="SVGRepo_tracerCarrier" stroke-linecap="round" stroke-linejoin="round"/>
<g id="SVGRepo_iconCarrier">
<path fill-rule="evenodd" d="M16.822 12.683c-1.349 2.513-3.885 4.485-6.818 5.317-2.935-.832-5.471-2.804-6.82-5.317C1.764 10.038 2 7 3 4c1.361-.089 3.983-.573 7.004-2 3.02 1.427 5.635 1.911 6.996 2 1 3 1 6-.178 8.683zm-2.615-5.89a1 1 0 010 1.414l-4.5 4.5a1 1 0 01-1.414 0l-2.5-2.5a1 1 0 111.414-1.414L9 10.586l3.793-3.793a1 1 0 011.414 0z" fill="#081c34"/>
</g>
</svg>