<svg xmlns="http://www.w3.org/2000/svg" xmlns:xlink="http://www.w3.org/1999/xlink" width="250" zoomAndPan="magnify" viewBox="0 0 187.5 42.75" height="57" preserveAspectRatio="xMidYMid meet" version="1.0"><defs><g/><clipPath id="be161dce12"><path d="M 130.109375 17.136719 L 132.132812 17.136719 L 132.132812 21.71875 L 130.109375 21.71875 Z M 130.109375 17.136719 " clip-rule="nonzero"/></clipPath><clipPath id="4fe854284f"><path d="M 139 2 L 149 2 L 149 22 L 139 22 Z M 139 2 " clip-rule="nonzero"/></clipPath><clipPath id="2033a7df60"><path d="M 129.757812 11.867188 L 139.492188 2.132812 L 149.226562 11.867188 L 139.492188 21.601562 Z M 129.757812 11.867188 " clip-rule="nonzero"/></clipPath><clipPath id="6a5264fe25"><path d="M 148.699219 11.867188 L 138.964844 21.601562 L 129.230469 11.867188 L 138.964844 2.132812 Z M 148.699219 11.867188 " clip-rule="nonzero"/></clipPath><clipPath id="2511e5afee"><path d="M 123.011719 2.394531 L 139.230469 2.394531 L 139.230469 18.613281 L 123.011719 18.613281 Z M 123.011719 2.394531 " clip-rule="nonzero"/></clipPath><clipPath id="5d75997ce2"><path d="M 131.121094 2.394531 C 126.640625 2.394531 123.011719 6.023438 123.011719 10.503906 C 123.011719 14.980469 126.640625 18.613281 131.121094 18.613281 C 135.597656 18.613281 139.230469 14.980469 139.230469 10.503906 C 139.230469 6.023438 135.597656 2.394531 131.121094 2.394531 Z M 131.121094 2.394531 " clip-rule="nonzero"/></clipPath><clipPath id="bc86ff7cf4"><path d="M 133 11 L 135.824219 11 L 135.824219 14 L 133 14 Z M 133 11 " clip-rule="nonzero"/></clipPath><clipPath id="3ecc9a57f3"><path d="M 129 9 L 134 9 L 134 17.363281 L 129 17.363281 Z M 129 9 " clip-rule="nonzero"/></clipPath><clipPath id="7586df768a"><path d="M 127 8.183594 L 130 8.183594 L 130 12 L 127 12 Z M 127 8.183594 " clip-rule="nonzero"/></clipPath><clipPath id="b7b106f953"><path d="M 113 2 L 124 2 L 124 22 L 113 22 Z M 113 2 " clip-rule="nonzero"/></clipPath><clipPath id="b7993e8c3c"><path d="M 113.207031 12.324219 L 122.460938 2.128906 L 132.65625 11.382812 L 123.402344 21.578125 Z M 113.207031 12.324219 " clip-rule="nonzero"/></clipPath><clipPath id="036c371300"><path d="M 113.207031 12.324219 L 122.460938 2.128906 L 132.65625 11.382812 L 123.402344 21.578125 Z M 113.207031 12.324219 " clip-rule="nonzero"/></clipPath></defs><g fill="#081c34" fill-opacity="1"><g transform="translate(2.876529, 20.332167)"><g><path d="M 12.265625 -10.9375 C 11.96875 -9.71875 11.65625 -8.40625 11.375 -7.140625 C 11.109375 -8.40625 10.78125 -9.71875 10.484375 -10.9375 L 8.8125 -17.609375 L 1.234375 -17.609375 L 1.234375 0 L 5.9375 0 L 5.9375 -5 C 5.9375 -7.9375 5.90625 -10.40625 5.78125 -13.234375 C 6.109375 -11.953125 6.40625 -10.8125 6.828125 -9.328125 L 9.375 0 L 13.375 0 L 15.921875 -9.328125 C 16.34375 -10.8125 16.640625 -11.953125 16.96875 -13.234375 C 16.84375 -10.40625 16.8125 -7.9375 16.8125 -5 L 16.8125 0 L 21.515625 0 L 21.515625 -17.609375 L 13.953125 -17.609375 Z M 12.265625 -10.9375 "/></g></g></g><g fill="#081c34" fill-opacity="1"><g transform="translate(25.632499, 20.332167)"><g><path d="M 15.140625 -17.609375 L 1.234375 -17.609375 L 1.234375 0 L 15.140625 0 L 15.140625 -4.40625 L 6.1875 -4.40625 L 6.1875 -6.75 L 14.34375 -6.75 L 14.34375 -10.90625 L 6.1875 -10.90625 L 6.1875 -13.203125 L 15.140625 -13.203125 Z M 15.140625 -17.609375 "/></g></g></g><g fill="#081c34" fill-opacity="1"><g transform="translate(41.388534, 20.332167)"><g><path d="M 15.578125 -17.609375 L 0.25 -17.609375 L 0.25 -13.203125 L 5.4375 -13.203125 L 5.4375 0 L 10.390625 0 L 10.390625 -13.203125 L 15.578125 -13.203125 Z M 15.578125 -17.609375 "/></g></g></g><g fill="#081c34" fill-opacity="1"><g transform="translate(57.218773, 20.332167)"><g><path d="M 18.546875 0 L 12.078125 -17.609375 L 6.140625 -17.609375 L -0.125 0 L 4.921875 0 L 5.671875 -2.296875 L 12.5625 -2.296875 L 13.3125 0 Z M 8.234375 -10.4375 C 8.53125 -11.359375 8.8125 -12.296875 9.078125 -13.234375 C 9.328125 -12.296875 9.625 -11.359375 9.921875 -10.4375 L 11.234375 -6.375 L 6.953125 -6.375 Z M 8.234375 -10.4375 "/></g></g></g><g fill="#081c34" fill-opacity="1"><g transform="translate(75.646162, 20.332167)"><g><path d="M 9.5 -17.609375 L 1.234375 -17.609375 L 1.234375 0 L 6.1875 0 L 6.1875 -5.34375 L 9.5 -5.34375 C 13.75 -5.34375 16.25 -7.765625 16.25 -11.484375 C 16.25 -15.1875 13.75 -17.609375 9.5 -17.609375 Z M 6.1875 -9.5 L 6.1875 -13.453125 L 9.125 -13.453125 C 10.4375 -13.453125 11.328125 -12.8125 11.328125 -11.484375 C 11.328125 -10.140625 10.4375 -9.5 9.125 -9.5 Z M 6.1875 -9.5 "/></g></g></g><g fill="#081c34" fill-opacity="1"><g transform="translate(92.391586, 20.332167)"><g><path d="M 16.125 -4.125 C 16.046875 -6.015625 15.75 -7.5 13.703125 -8.265625 C 15.578125 -9.109375 16.453125 -10.6875 16.453125 -12.390625 C 16.453125 -15.140625 14.6875 -17.609375 9.890625 -17.609375 L 1.234375 -17.609375 L 1.234375 0 L 6.1875 0 L 6.1875 -6.078125 L 8.75 -6.078125 C 10.140625 -6.078125 11.078125 -5.78125 11.15625 -3.78125 L 11.234375 -1.78125 C 11.25 -1.015625 11.359375 -0.46875 11.578125 0 L 16.671875 0 C 16.421875 -0.421875 16.25 -1.03125 16.21875 -1.78125 Z M 6.1875 -13.75 L 9.15625 -13.75 C 10.609375 -13.75 11.359375 -12.984375 11.359375 -11.71875 C 11.359375 -10.4375 10.609375 -9.703125 9.15625 -9.703125 L 6.1875 -9.703125 Z M 6.1875 -13.75 "/></g></g></g><g fill="#081c34" fill-opacity="1"><g transform="translate(109.435273, 20.332167)"><g/></g></g><g fill="#081c34" fill-opacity="1"><g transform="translate(3.913338, 39.957708)"><g><path d="M 0.953125 -0.640625 C 0.921875 -0.785156 0.90625 -1.0625 0.90625 -1.46875 C 0.90625 -1.882812 0.984375 -2.328125 1.140625 -2.796875 L 1.28125 -2.796875 C 1.269531 -2.679688 1.265625 -2.566406 1.265625 -2.453125 C 1.265625 -1.828125 1.453125 -1.300781 1.828125 -0.875 C 2.210938 -0.457031 2.722656 -0.25 3.359375 -0.25 C 4.015625 -0.25 4.550781 -0.445312 4.96875 -0.84375 C 5.382812 -1.238281 5.59375 -1.734375 5.59375 -2.328125 C 5.59375 -2.921875 5.390625 -3.40625 4.984375 -3.78125 L 2 -6.546875 C 1.445312 -7.066406 1.171875 -7.691406 1.171875 -8.421875 C 1.171875 -9.160156 1.414062 -9.789062 1.90625 -10.3125 C 2.394531 -10.832031 3.0625 -11.09375 3.90625 -11.09375 C 4.300781 -11.09375 4.742188 -11.039062 5.234375 -10.9375 L 5.84375 -10.9375 L 5.84375 -9.03125 L 5.703125 -9.03125 C 5.703125 -9.519531 5.53125 -9.910156 5.1875 -10.203125 C 4.851562 -10.492188 4.421875 -10.640625 3.890625 -10.640625 C 3.367188 -10.640625 2.925781 -10.460938 2.5625 -10.109375 C 2.207031 -9.753906 2.03125 -9.3125 2.03125 -8.78125 C 2.03125 -8.25 2.238281 -7.796875 2.65625 -7.421875 L 5.71875 -4.59375 C 6.238281 -4.113281 6.5 -3.457031 6.5 -2.625 C 6.5 -1.800781 6.234375 -1.117188 5.703125 -0.578125 C 5.171875 -0.046875 4.46875 0.21875 3.59375 0.21875 C 3.132812 0.21875 2.648438 0.144531 2.140625 0 C 1.628906 -0.132812 1.234375 -0.347656 0.953125 -0.640625 Z M 0.953125 -0.640625 "/></g></g></g><g fill="#081c34" fill-opacity="1"><g transform="translate(22.483131, 39.957708)"><g><path d="M 2.640625 -9.53125 C 3.671875 -10.570312 5.015625 -11.09375 6.671875 -11.09375 C 8.328125 -11.09375 9.671875 -10.570312 10.703125 -9.53125 C 11.742188 -8.488281 12.265625 -7.125 12.265625 -5.4375 C 12.265625 -3.75 11.742188 -2.382812 10.703125 -1.34375 C 9.671875 -0.300781 8.328125 0.21875 6.671875 0.21875 C 5.015625 0.21875 3.671875 -0.300781 2.640625 -1.34375 C 1.609375 -2.382812 1.09375 -3.75 1.09375 -5.4375 C 1.09375 -7.125 1.609375 -8.488281 2.640625 -9.53125 Z M 3.484375 -1.671875 C 4.285156 -0.722656 5.347656 -0.25 6.671875 -0.25 C 7.992188 -0.25 9.054688 -0.722656 9.859375 -1.671875 C 10.660156 -2.628906 11.0625 -3.882812 11.0625 -5.4375 C 11.0625 -6.46875 10.878906 -7.375 10.515625 -8.15625 C 10.160156 -8.945312 9.644531 -9.554688 8.96875 -9.984375 C 8.300781 -10.421875 7.535156 -10.640625 6.671875 -10.640625 C 5.347656 -10.640625 4.285156 -10.160156 3.484375 -9.203125 C 2.679688 -8.242188 2.28125 -6.988281 2.28125 -5.4375 C 2.28125 -3.882812 2.679688 -2.628906 3.484375 -1.671875 Z M 3.484375 -1.671875 "/></g></g></g><g fill="#081c34" fill-opacity="1"><g transform="translate(46.692312, 39.957708)"><g><path d="M 1.140625 -0.15625 C 1.410156 -0.15625 1.640625 -0.25 1.828125 -0.4375 C 2.015625 -0.632812 2.113281 -0.867188 2.125 -1.140625 L 2.125 -9.75 C 2.113281 -10.019531 2.015625 -10.25 1.828125 -10.4375 C 1.640625 -10.632812 1.410156 -10.734375 1.140625 -10.734375 L 0.9375 -10.734375 L 0.9375 -10.875 L 4.34375 -10.875 L 4.34375 -10.734375 L 4.140625 -10.734375 C 3.765625 -10.734375 3.476562 -10.570312 3.28125 -10.25 C 3.1875 -10.09375 3.140625 -9.925781 3.140625 -9.75 L 3.140625 -0.484375 L 5.359375 -0.484375 C 6.128906 -0.484375 6.71875 -0.65625 7.125 -1 C 7.53125 -1.34375 7.863281 -1.847656 8.125 -2.515625 L 8.28125 -2.515625 L 7.390625 0 L 0.9375 0 L 0.9375 -0.15625 Z M 1.140625 -0.15625 "/></g></g></g><g fill="#081c34" fill-opacity="1"><g transform="translate(66.61369, 39.957708)"><g><path d="M 11.421875 -10.734375 L 11.171875 -10.734375 C 10.960938 -10.734375 10.773438 -10.660156 10.609375 -10.515625 C 10.453125 -10.378906 10.367188 -10.207031 10.359375 -10 L 10.359375 -3.84375 C 10.359375 -2.625 9.972656 -1.640625 9.203125 -0.890625 C 8.429688 -0.148438 7.410156 0.21875 6.140625 0.21875 C 4.867188 0.21875 3.832031 -0.148438 3.03125 -0.890625 C 2.238281 -1.628906 1.84375 -2.609375 1.84375 -3.828125 L 1.84375 -9.953125 C 1.84375 -10.265625 1.710938 -10.492188 1.453125 -10.640625 C 1.328125 -10.703125 1.1875 -10.734375 1.03125 -10.734375 L 0.78125 -10.734375 L 0.78125 -10.875 L 3.9375 -10.875 L 3.9375 -10.734375 L 3.6875 -10.734375 C 3.457031 -10.734375 3.265625 -10.660156 3.109375 -10.515625 C 2.953125 -10.378906 2.867188 -10.203125 2.859375 -9.984375 L 2.859375 -4.046875 C 2.859375 -2.910156 3.160156 -1.992188 3.765625 -1.296875 C 4.367188 -0.609375 5.179688 -0.265625 6.203125 -0.265625 C 7.222656 -0.265625 8.046875 -0.59375 8.671875 -1.25 C 9.304688 -1.90625 9.625 -2.769531 9.625 -3.84375 L 9.625 -9.984375 C 9.613281 -10.203125 9.53125 -10.378906 9.375 -10.515625 C 9.21875 -10.660156 9.023438 -10.734375 8.796875 -10.734375 L 8.546875 -10.734375 L 8.546875 -10.875 L 11.421875 -10.875 Z M 11.421875 -10.734375 "/></g></g></g><g fill="#081c34" fill-opacity="1"><g transform="translate(89.999483, 39.957708)"><g><path d="M 9.15625 -9.5 C 9.15625 -9.75 9.066406 -9.960938 8.890625 -10.140625 C 8.710938 -10.328125 8.503906 -10.425781 8.265625 -10.4375 L 5.3125 -10.4375 L 5.3125 -1.125 C 5.320312 -0.851562 5.421875 -0.625 5.609375 -0.4375 C 5.804688 -0.25 6.039062 -0.15625 6.3125 -0.15625 L 6.515625 -0.15625 L 6.515625 0 L 3.109375 0 L 3.109375 -0.15625 L 3.3125 -0.15625 C 3.582031 -0.15625 3.8125 -0.25 4 -0.4375 C 4.195312 -0.625 4.300781 -0.847656 4.3125 -1.109375 L 4.3125 -10.4375 L 1.359375 -10.4375 C 1.109375 -10.425781 0.894531 -10.328125 0.71875 -10.140625 C 0.550781 -9.960938 0.46875 -9.75 0.46875 -9.5 L 0.46875 -9.234375 L 0.3125 -9.21875 L 0.3125 -11.171875 C 0.46875 -11.109375 0.734375 -11.046875 1.109375 -10.984375 C 1.492188 -10.921875 1.847656 -10.890625 2.171875 -10.890625 L 7.4375 -10.890625 C 7.9375 -10.890625 8.351562 -10.925781 8.6875 -11 C 9.03125 -11.082031 9.238281 -11.140625 9.3125 -11.171875 L 9.3125 -9.21875 L 9.15625 -9.234375 Z M 9.15625 -9.5 "/></g></g></g><g fill="#081c34" fill-opacity="1"><g transform="translate(110.790851, 39.957708)"><g><path d="M 1.140625 -0.15625 C 1.410156 -0.15625 1.640625 -0.25 1.828125 -0.4375 C 2.015625 -0.632812 2.113281 -0.867188 2.125 -1.140625 L 2.125 -9.765625 C 2.113281 -10.035156 2.015625 -10.265625 1.828125 -10.453125 C 1.640625 -10.640625 1.410156 -10.734375 1.140625 -10.734375 L 0.9375 -10.734375 L 0.9375 -10.875 L 4.34375 -10.875 L 4.34375 -10.734375 L 4.140625 -10.734375 C 3.867188 -10.734375 3.632812 -10.640625 3.4375 -10.453125 C 3.25 -10.265625 3.148438 -10.035156 3.140625 -9.765625 L 3.140625 -1.140625 C 3.140625 -0.867188 3.238281 -0.632812 3.4375 -0.4375 C 3.632812 -0.25 3.867188 -0.15625 4.140625 -0.15625 L 4.34375 -0.15625 L 4.34375 0 L 0.9375 0 L 0.9375 -0.15625 Z M 1.140625 -0.15625 "/></g></g></g><g fill="#081c34" fill-opacity="1"><g transform="translate(127.232275, 39.957708)"><g><path d="M 2.640625 -9.53125 C 3.671875 -10.570312 5.015625 -11.09375 6.671875 -11.09375 C 8.328125 -11.09375 9.671875 -10.570312 10.703125 -9.53125 C 11.742188 -8.488281 12.265625 -7.125 12.265625 -5.4375 C 12.265625 -3.75 11.742188 -2.382812 10.703125 -1.34375 C 9.671875 -0.300781 8.328125 0.21875 6.671875 0.21875 C 5.015625 0.21875 3.671875 -0.300781 2.640625 -1.34375 C 1.609375 -2.382812 1.09375 -3.75 1.09375 -5.4375 C 1.09375 -7.125 1.609375 -8.488281 2.640625 -9.53125 Z M 3.484375 -1.671875 C 4.285156 -0.722656 5.347656 -0.25 6.671875 -0.25 C 7.992188 -0.25 9.054688 -0.722656 9.859375 -1.671875 C 10.660156 -2.628906 11.0625 -3.882812 11.0625 -5.4375 C 11.0625 -6.46875 10.878906 -7.375 10.515625 -8.15625 C 10.160156 -8.945312 9.644531 -9.554688 8.96875 -9.984375 C 8.300781 -10.421875 7.535156 -10.640625 6.671875 -10.640625 C 5.347656 -10.640625 4.285156 -10.160156 3.484375 -9.203125 C 2.679688 -8.242188 2.28125 -6.988281 2.28125 -5.4375 C 2.28125 -3.882812 2.679688 -2.628906 3.484375 -1.671875 Z M 3.484375 -1.671875 "/></g></g></g><g fill="#081c34" fill-opacity="1"><g transform="translate(151.44145, 39.957708)"><g><path d="M 12.09375 -10.734375 C 11.832031 -10.734375 11.609375 -10.640625 11.421875 -10.453125 C 11.234375 -10.273438 11.132812 -10.054688 11.125 -9.796875 L 11.125 -1.765625 C 11.125 -1.171875 11.160156 -0.601562 11.234375 -0.0625 L 11.265625 0.21875 L 11.125 0.21875 L 2.65625 -8.828125 L 2.65625 -1.09375 C 2.664062 -0.726562 2.828125 -0.457031 3.140625 -0.28125 C 3.285156 -0.195312 3.441406 -0.15625 3.609375 -0.15625 L 3.90625 -0.15625 L 3.90625 0 L 0.703125 0 L 0.703125 -0.15625 L 1 -0.15625 C 1.257812 -0.15625 1.476562 -0.242188 1.65625 -0.421875 C 1.84375 -0.609375 1.9375 -0.835938 1.9375 -1.109375 L 1.9375 -9.171875 C 1.9375 -9.804688 1.898438 -10.375 1.828125 -10.875 L 1.796875 -11.109375 L 1.953125 -11.109375 L 10.4375 -2.0625 L 10.4375 -9.78125 C 10.425781 -10.050781 10.328125 -10.273438 10.140625 -10.453125 C 9.953125 -10.640625 9.726562 -10.734375 9.46875 -10.734375 L 9.171875 -10.734375 L 9.171875 -10.875 L 12.375 -10.875 L 12.375 -10.734375 Z M 12.09375 -10.734375 "/></g></g></g><g fill="#081c34" fill-opacity="1"><g transform="translate(175.697232, 39.957708)"><g><path d="M 0.953125 -0.640625 C 0.921875 -0.785156 0.90625 -1.0625 0.90625 -1.46875 C 0.90625 -1.882812 0.984375 -2.328125 1.140625 -2.796875 L 1.28125 -2.796875 C 1.269531 -2.679688 1.265625 -2.566406 1.265625 -2.453125 C 1.265625 -1.828125 1.453125 -1.300781 1.828125 -0.875 C 2.210938 -0.457031 2.722656 -0.25 3.359375 -0.25 C 4.015625 -0.25 4.550781 -0.445312 4.96875 -0.84375 C 5.382812 -1.238281 5.59375 -1.734375 5.59375 -2.328125 C 5.59375 -2.921875 5.390625 -3.40625 4.984375 -3.78125 L 2 -6.546875 C 1.445312 -7.066406 1.171875 -7.691406 1.171875 -8.421875 C 1.171875 -9.160156 1.414062 -9.789062 1.90625 -10.3125 C 2.394531 -10.832031 3.0625 -11.09375 3.90625 -11.09375 C 4.300781 -11.09375 4.742188 -11.039062 5.234375 -10.9375 L 5.84375 -10.9375 L 5.84375 -9.03125 L 5.703125 -9.03125 C 5.703125 -9.519531 5.53125 -9.910156 5.1875 -10.203125 C 4.851562 -10.492188 4.421875 -10.640625 3.890625 -10.640625 C 3.367188 -10.640625 2.925781 -10.460938 2.5625 -10.109375 C 2.207031 -9.753906 2.03125 -9.3125 2.03125 -8.78125 C 2.03125 -8.25 2.238281 -7.796875 2.65625 -7.421875 L 5.71875 -4.59375 C 6.238281 -4.113281 6.5 -3.457031 6.5 -2.625 C 6.5 -1.800781 6.234375 -1.117188 5.703125 -0.578125 C 5.171875 -0.046875 4.46875 0.21875 3.59375 0.21875 C 3.132812 0.21875 2.648438 0.144531 2.140625 0 C 1.628906 -0.132812 1.234375 -0.347656 0.953125 -0.640625 Z M 0.953125 -0.640625 "/></g></g></g><g clip-path="url(#be161dce12)"><path fill="#081c34" d="M 130.109375 17.136719 L 132.132812 17.136719 L 132.132812 21.714844 L 130.109375 21.714844 Z M 130.109375 17.136719 " fill-opacity="1" fill-rule="nonzero"/></g><g clip-path="url(#4fe854284f)"><g clip-path="url(#2033a7df60)"><g clip-path="url(#6a5264fe25)"><path fill="#081c34" d="M 148.699219 11.867188 L 139.230469 21.335938 C 139.550781 21.015625 139.859375 20.675781 140.144531 20.324219 C 140.429688 19.972656 140.695312 19.613281 140.945312 19.238281 C 141.1875 18.871094 141.414062 18.488281 141.617188 18.097656 C 141.820312 17.710938 142.003906 17.3125 142.167969 16.910156 C 142.496094 16.105469 142.738281 15.277344 142.90625 14.425781 C 143.066406 13.582031 143.148438 12.730469 143.148438 11.867188 C 143.148438 11.007812 143.066406 10.15625 142.90625 9.308594 C 142.738281 8.457031 142.496094 7.632812 142.167969 6.828125 C 142.003906 6.425781 141.820312 6.023438 141.617188 5.640625 C 141.414062 5.25 141.1875 4.863281 140.945312 4.496094 C 140.695312 4.121094 140.429688 3.761719 140.144531 3.414062 C 139.855469 3.058594 139.550781 2.71875 139.226562 2.394531 Z M 148.699219 11.867188 " fill-opacity="1" fill-rule="nonzero"/></g></g></g><g clip-path="url(#2511e5afee)"><g clip-path="url(#5d75997ce2)"><path stroke-linecap="butt" transform="matrix(0.917853, 0, 0, 0.917853, 123.010249, 2.392712)" fill="none" stroke-linejoin="miter" d="M 8.836761 0.00198204 C 3.955293 0.00198204 0.00160133 3.955674 0.00160133 8.837142 C 0.00160133 13.714355 3.955293 17.672302 8.836761 17.672302 C 13.713974 17.672302 17.671921 13.714355 17.671921 8.837142 C 17.671921 3.955674 13.713974 0.00198204 8.836761 0.00198204 Z M 8.836761 0.00198204 " stroke="#081c34" stroke-width="6.498991" stroke-opacity="1" stroke-miterlimit="4"/></g></g><g clip-path="url(#bc86ff7cf4)"><path fill="#081c34" d="M 134.304688 11.4375 L 134.1875 11.683594 L 134.070312 11.933594 L 133.6875 12.734375 L 133.570312 12.984375 L 133.453125 13.230469 L 134.269531 13.585938 L 135.089844 11.828125 Z M 134.304688 11.4375 " fill-opacity="1" fill-rule="nonzero"/></g><g clip-path="url(#3ecc9a57f3)"><path fill="#081c34" d="M 132.484375 13.839844 L 132.761719 13.839844 L 132.761719 13.292969 L 132.484375 13.292969 L 132.484375 12.8125 L 132.949219 13.015625 L 133.183594 12.515625 L 133.578125 11.6875 L 133.695312 11.4375 L 133.816406 11.191406 L 130.054688 9.316406 L 129.828125 9.816406 L 129.355469 10.859375 L 129.128906 11.359375 L 131.9375 12.574219 L 131.9375 13.292969 L 131.660156 13.292969 L 131.660156 13.839844 L 131.9375 13.839844 L 131.9375 15.101562 L 130.699219 16.792969 L 131.140625 17.117188 L 131.9375 16.03125 L 131.9375 17.132812 L 132.484375 17.132812 L 132.484375 16.015625 L 133.316406 17.121094 L 133.753906 16.789062 L 132.484375 15.097656 Z M 132.484375 13.839844 " fill-opacity="1" fill-rule="nonzero"/></g><g clip-path="url(#7586df768a)"><path fill="#081c34" d="M 128.339844 8.183594 L 127.152344 10.738281 L 128.515625 11.371094 L 128.609375 11.171875 L 128.625 11.140625 L 128.742188 10.890625 L 129.449219 9.320312 L 129.5625 9.070312 L 129.683594 8.808594 Z M 128.339844 8.183594 " fill-opacity="1" fill-rule="nonzero"/></g><g clip-path="url(#b7b106f953)"><g clip-path="url(#b7993e8c3c)"><g clip-path="url(#036c371300)"><path fill="#081c34" d="M 113.210938 12.324219 L 122.222656 2.398438 C 121.914062 2.734375 121.625 3.089844 121.351562 3.457031 C 121.085938 3.816406 120.835938 4.191406 120.609375 4.578125 C 120.382812 4.957031 120.175781 5.351562 119.988281 5.753906 C 119.804688 6.148438 119.640625 6.554688 119.496094 6.96875 C 119.207031 7.785156 119.003906 8.625 118.878906 9.484375 C 118.757812 10.335938 118.714844 11.195312 118.757812 12.054688 C 118.800781 12.914062 118.921875 13.765625 119.125 14.601562 C 119.332031 15.445312 119.617188 16.257812 119.980469 17.046875 C 120.164062 17.441406 120.371094 17.832031 120.589844 18.210938 C 120.8125 18.589844 121.058594 18.960938 121.320312 19.316406 C 121.585938 19.679688 121.867188 20.027344 122.167969 20.363281 C 122.476562 20.703125 122.796875 21.027344 123.136719 21.335938 Z M 113.210938 12.324219 " fill-opacity="1" fill-rule="nonzero"/></g></g></g><g fill="#081c34" fill-opacity="1"><g transform="translate(144.395785, 20.141427)"><g/></g></g><g fill="#081c34" fill-opacity="1"><g transform="translate(150.555496, 20.141427)"><g><path d="M 13.78125 -9.453125 C 15.1875 -10.09375 16.078125 -11.40625 16.078125 -13.140625 C 16.078125 -15.390625 14.5625 -17.609375 10 -17.609375 L 1.234375 -17.609375 L 1.234375 0 L 10.171875 0 C 14.796875 0 16.796875 -2.078125 16.796875 -5.1875 C 16.796875 -6.953125 15.65625 -8.78125 13.78125 -9.453125 Z M 9.640625 -13.75 C 10.59375 -13.75 11.15625 -13.140625 11.15625 -12.25 C 11.15625 -11.359375 10.59375 -10.734375 9.640625 -10.734375 L 6.1875 -10.734375 L 6.1875 -13.75 Z M 6.1875 -3.890625 L 6.1875 -7.09375 L 9.890625 -7.09375 C 11 -7.09375 11.671875 -6.546875 11.671875 -5.484375 C 11.671875 -4.421875 11 -3.890625 9.890625 -3.890625 Z M 6.1875 -3.890625 "/></g></g></g><g fill="#081c34" fill-opacity="1"><g transform="translate(167.721411, 20.141427)"><g><path d="M 15.140625 -17.609375 L 1.234375 -17.609375 L 1.234375 0 L 15.140625 0 L 15.140625 -4.40625 L 6.1875 -4.40625 L 6.1875 -6.75 L 14.34375 -6.75 L 14.34375 -10.90625 L 6.1875 -10.90625 L 6.1875 -13.203125 L 15.140625 -13.203125 Z M 15.140625 -17.609375 "/></g></g></g></svg>