<svg xmlns="http://www.w3.org/2000/svg" xmlns:xlink="http://www.w3.org/1999/xlink" width="291" zoomAndPan="magnify" viewBox="0 0 218.25 48" height="64" preserveAspectRatio="xMidYMid meet" version="1.0"><defs><g/><clipPath id="fc76b7fc83"><path d="M 151.578125 16.921875 L 153.894531 16.921875 L 153.894531 22.15625 L 151.578125 22.15625 Z M 151.578125 16.921875 " clip-rule="nonzero"/></clipPath><clipPath id="f04d33240f"><path d="M 161 0 L 173 0 L 173 22 L 161 22 Z M 161 0 " clip-rule="nonzero"/></clipPath><clipPath id="843877a38c"><path d="M 151.175781 10.90625 L 162.296875 -0.214844 L 173.417969 10.90625 L 162.296875 22.027344 Z M 151.175781 10.90625 " clip-rule="nonzero"/></clipPath><clipPath id="21df99095a"><path d="M 172.816406 10.90625 L 161.695312 22.027344 L 150.574219 10.90625 L 161.695312 -0.214844 Z M 172.816406 10.90625 " clip-rule="nonzero"/></clipPath><clipPath id="dcd06dbf30"><path d="M 143.46875 0.0820312 L 162 0.0820312 L 162 18.609375 L 143.46875 18.609375 Z M 143.46875 0.0820312 " clip-rule="nonzero"/></clipPath><clipPath id="379b407682"><path d="M 152.734375 0.0820312 C 147.617188 0.0820312 143.46875 4.230469 143.46875 9.347656 C 143.46875 14.460938 147.617188 18.609375 152.734375 18.609375 C 157.851562 18.609375 162 14.460938 162 9.347656 C 162 4.230469 157.851562 0.0820312 152.734375 0.0820312 Z M 152.734375 0.0820312 " clip-rule="nonzero"/></clipPath><clipPath id="32f359e654"><path d="M 150 8 L 157 8 L 157 17.179688 L 150 17.179688 Z M 150 8 " clip-rule="nonzero"/></clipPath><clipPath id="40b9693d98"><path d="M 148 6.695312 L 152 6.695312 L 152 11 L 148 11 Z M 148 6.695312 " clip-rule="nonzero"/></clipPath><clipPath id="06a16063cc"><path d="M 132 0 L 144 0 L 144 22 L 132 22 Z M 132 0 " clip-rule="nonzero"/></clipPath><clipPath id="a21176a6e1"><path d="M 132.273438 11.425781 L 142.84375 -0.21875 L 154.488281 10.351562 L 143.917969 21.996094 Z M 132.273438 11.425781 " clip-rule="nonzero"/></clipPath><clipPath id="dec82a563a"><path d="M 132.273438 11.425781 L 142.84375 -0.21875 L 154.488281 10.351562 L 143.917969 21.996094 Z M 132.273438 11.425781 " clip-rule="nonzero"/></clipPath></defs><g fill="#ffffff" fill-opacity="1"><g transform="translate(1.479238, 20.549671)"><g><path d="M 14.015625 -12.5 C 13.6875 -11.109375 13.3125 -9.609375 13 -8.171875 C 12.6875 -9.609375 12.328125 -11.109375 11.984375 -12.5 L 10.0625 -20.125 L 1.40625 -20.125 L 1.40625 0 L 6.78125 0 L 6.78125 -5.703125 C 6.78125 -9.078125 6.75 -11.90625 6.609375 -15.125 C 6.984375 -13.65625 7.328125 -12.359375 7.796875 -10.65625 L 10.71875 0 L 15.296875 0 L 18.203125 -10.65625 C 18.6875 -12.359375 19.015625 -13.65625 19.390625 -15.125 C 19.25 -11.90625 19.21875 -9.078125 19.21875 -5.703125 L 19.21875 0 L 24.59375 0 L 24.59375 -20.125 L 15.9375 -20.125 Z M 14.015625 -12.5 "/></g></g></g><g fill="#ffffff" fill-opacity="1"><g transform="translate(27.474461, 20.549671)"><g><path d="M 17.296875 -20.125 L 1.40625 -20.125 L 1.40625 0 L 17.296875 0 L 17.296875 -5.03125 L 7.0625 -5.03125 L 7.0625 -7.71875 L 16.390625 -7.71875 L 16.390625 -12.46875 L 7.0625 -12.46875 L 7.0625 -15.09375 L 17.296875 -15.09375 Z M 17.296875 -20.125 "/></g></g></g><g fill="#ffffff" fill-opacity="1"><g transform="translate(45.473327, 20.549671)"><g><path d="M 17.8125 -20.125 L 0.28125 -20.125 L 0.28125 -15.09375 L 6.21875 -15.09375 L 6.21875 0 L 11.875 0 L 11.875 -15.09375 L 17.8125 -15.09375 Z M 17.8125 -20.125 "/></g></g></g><g fill="#ffffff" fill-opacity="1"><g transform="translate(63.556959, 20.549671)"><g><path d="M 21.203125 0 L 13.796875 -20.125 L 7.015625 -20.125 L -0.140625 0 L 5.625 0 L 6.46875 -2.625 L 14.359375 -2.625 L 15.203125 0 Z M 9.40625 -11.921875 C 9.75 -12.96875 10.0625 -14.046875 10.375 -15.125 C 10.65625 -14.046875 11 -12.96875 11.328125 -11.921875 L 12.828125 -7.296875 L 7.9375 -7.296875 Z M 9.40625 -11.921875 "/></g></g></g><g fill="#ffffff" fill-opacity="1"><g transform="translate(84.607438, 20.549671)"><g><path d="M 10.859375 -20.125 L 1.40625 -20.125 L 1.40625 0 L 7.0625 0 L 7.0625 -6.109375 L 10.859375 -6.109375 C 15.71875 -6.109375 18.578125 -8.875 18.578125 -13.109375 C 18.578125 -17.359375 15.71875 -20.125 10.859375 -20.125 Z M 7.0625 -10.859375 L 7.0625 -15.375 L 10.4375 -15.375 C 11.921875 -15.375 12.953125 -14.640625 12.953125 -13.109375 C 12.953125 -11.59375 11.921875 -10.859375 10.4375 -10.859375 Z M 7.0625 -10.859375 "/></g></g></g><g fill="#ffffff" fill-opacity="1"><g transform="translate(103.736531, 20.549671)"><g><path d="M 18.421875 -4.71875 C 18.34375 -6.875 18 -8.5625 15.65625 -9.4375 C 17.8125 -10.40625 18.796875 -12.203125 18.796875 -14.15625 C 18.796875 -17.296875 16.796875 -20.125 11.3125 -20.125 L 1.40625 -20.125 L 1.40625 0 L 7.0625 0 L 7.0625 -6.953125 L 10 -6.953125 C 11.59375 -6.953125 12.65625 -6.609375 12.75 -4.328125 L 12.828125 -2.03125 C 12.859375 -1.15625 12.96875 -0.53125 13.234375 0 L 19.046875 0 C 18.765625 -0.484375 18.578125 -1.1875 18.546875 -2.03125 Z M 7.0625 -15.71875 L 10.453125 -15.71875 C 12.125 -15.71875 12.96875 -14.84375 12.96875 -13.390625 C 12.96875 -11.921875 12.125 -11.078125 10.453125 -11.078125 L 7.0625 -11.078125 Z M 7.0625 -15.71875 "/></g></g></g><g fill="#ffffff" fill-opacity="1"><g transform="translate(123.206342, 20.549671)"><g/></g></g><g fill="#ffffff" fill-opacity="1"><g transform="translate(3.827947, 42.81272)"><g><path d="M 1.078125 -0.734375 C 1.046875 -0.890625 1.03125 -1.203125 1.03125 -1.671875 C 1.03125 -2.148438 1.117188 -2.65625 1.296875 -3.1875 L 1.453125 -3.1875 C 1.441406 -3.0625 1.4375 -2.929688 1.4375 -2.796875 C 1.4375 -2.078125 1.65625 -1.476562 2.09375 -1 C 2.53125 -0.519531 3.109375 -0.28125 3.828125 -0.28125 C 4.578125 -0.28125 5.191406 -0.503906 5.671875 -0.953125 C 6.148438 -1.410156 6.390625 -1.976562 6.390625 -2.65625 C 6.390625 -3.332031 6.160156 -3.882812 5.703125 -4.3125 L 2.296875 -7.46875 C 1.648438 -8.0625 1.328125 -8.773438 1.328125 -9.609375 C 1.328125 -10.453125 1.609375 -11.171875 2.171875 -11.765625 C 2.734375 -12.367188 3.492188 -12.671875 4.453125 -12.671875 C 4.898438 -12.671875 5.410156 -12.613281 5.984375 -12.5 L 6.671875 -12.5 L 6.671875 -10.3125 L 6.515625 -10.3125 C 6.515625 -10.863281 6.320312 -11.304688 5.9375 -11.640625 C 5.550781 -11.972656 5.054688 -12.140625 4.453125 -12.140625 C 3.847656 -12.140625 3.34375 -11.9375 2.9375 -11.53125 C 2.53125 -11.132812 2.328125 -10.632812 2.328125 -10.03125 C 2.328125 -9.425781 2.5625 -8.90625 3.03125 -8.46875 L 6.53125 -5.234375 C 7.125 -4.691406 7.421875 -3.945312 7.421875 -3 C 7.421875 -2.050781 7.117188 -1.269531 6.515625 -0.65625 C 5.910156 -0.0507812 5.101562 0.25 4.09375 0.25 C 3.570312 0.25 3.019531 0.164062 2.4375 0 C 1.851562 -0.15625 1.398438 -0.398438 1.078125 -0.734375 Z M 1.078125 -0.734375 "/></g></g></g><g fill="#ffffff" fill-opacity="1"><g transform="translate(25.574028, 42.81272)"><g><path d="M 3.015625 -10.890625 C 4.191406 -12.078125 5.722656 -12.671875 7.609375 -12.671875 C 9.503906 -12.671875 11.039062 -12.078125 12.21875 -10.890625 C 13.40625 -9.703125 14 -8.140625 14 -6.203125 C 14 -4.273438 13.40625 -2.71875 12.21875 -1.53125 C 11.039062 -0.34375 9.503906 0.25 7.609375 0.25 C 5.722656 0.25 4.191406 -0.34375 3.015625 -1.53125 C 1.835938 -2.71875 1.25 -4.273438 1.25 -6.203125 C 1.25 -8.140625 1.835938 -9.703125 3.015625 -10.890625 Z M 3.984375 -1.90625 C 4.898438 -0.820312 6.113281 -0.28125 7.625 -0.28125 C 9.132812 -0.28125 10.347656 -0.820312 11.265625 -1.90625 C 12.179688 -3 12.640625 -4.4375 12.640625 -6.21875 C 12.640625 -7.382812 12.429688 -8.414062 12.015625 -9.3125 C 11.597656 -10.21875 11.007812 -10.914062 10.25 -11.40625 C 9.488281 -11.894531 8.609375 -12.140625 7.609375 -12.140625 C 6.109375 -12.140625 4.898438 -11.59375 3.984375 -10.5 C 3.066406 -9.414062 2.609375 -7.984375 2.609375 -6.203125 C 2.609375 -4.429688 3.066406 -3 3.984375 -1.90625 Z M 3.984375 -1.90625 "/></g></g></g><g fill="#ffffff" fill-opacity="1"><g transform="translate(53.762456, 42.81272)"><g><path d="M 1.296875 -0.171875 C 1.597656 -0.171875 1.859375 -0.28125 2.078125 -0.5 C 2.296875 -0.71875 2.414062 -0.984375 2.4375 -1.296875 L 2.4375 -11.125 C 2.414062 -11.4375 2.296875 -11.703125 2.078125 -11.921875 C 1.859375 -12.140625 1.597656 -12.25 1.296875 -12.25 L 1.0625 -12.25 L 1.0625 -12.421875 L 4.953125 -12.421875 L 4.953125 -12.25 L 4.71875 -12.25 C 4.289062 -12.25 3.96875 -12.066406 3.75 -11.703125 C 3.632812 -11.523438 3.578125 -11.332031 3.578125 -11.125 L 3.578125 -0.546875 L 6.125 -0.546875 C 7 -0.546875 7.664062 -0.738281 8.125 -1.125 C 8.59375 -1.519531 8.976562 -2.101562 9.28125 -2.875 L 9.453125 -2.875 L 8.4375 0 L 1.0625 0 L 1.0625 -0.171875 Z M 1.296875 -0.171875 "/></g></g></g><g fill="#ffffff" fill-opacity="1"><g transform="translate(77.052563, 42.81272)"><g><path d="M 13.046875 -12.25 L 12.765625 -12.25 C 12.515625 -12.25 12.296875 -12.164062 12.109375 -12 C 11.929688 -11.84375 11.835938 -11.644531 11.828125 -11.40625 L 11.828125 -4.390625 C 11.828125 -3.003906 11.382812 -1.882812 10.5 -1.03125 C 9.625 -0.175781 8.457031 0.25 7 0.25 C 5.550781 0.25 4.375 -0.171875 3.46875 -1.015625 C 2.5625 -1.867188 2.109375 -2.984375 2.109375 -4.359375 L 2.109375 -11.359375 C 2.109375 -11.710938 1.957031 -11.972656 1.65625 -12.140625 C 1.507812 -12.210938 1.347656 -12.25 1.171875 -12.25 L 0.890625 -12.25 L 0.890625 -12.421875 L 4.484375 -12.421875 L 4.484375 -12.25 L 4.203125 -12.25 C 3.941406 -12.25 3.722656 -12.164062 3.546875 -12 C 3.367188 -11.84375 3.273438 -11.640625 3.265625 -11.390625 L 3.265625 -4.609375 C 3.265625 -3.328125 3.609375 -2.285156 4.296875 -1.484375 C 4.992188 -0.691406 5.921875 -0.296875 7.078125 -0.296875 C 8.242188 -0.296875 9.1875 -0.671875 9.90625 -1.421875 C 10.625 -2.179688 10.984375 -3.171875 10.984375 -4.390625 L 10.984375 -11.390625 C 10.972656 -11.640625 10.878906 -11.84375 10.703125 -12 C 10.523438 -12.164062 10.304688 -12.25 10.046875 -12.25 L 9.765625 -12.25 L 9.765625 -12.421875 L 13.046875 -12.421875 Z M 13.046875 -12.25 "/></g></g></g><g fill="#ffffff" fill-opacity="1"><g transform="translate(104.300371, 42.81272)"><g><path d="M 10.453125 -10.84375 C 10.453125 -11.125 10.347656 -11.367188 10.140625 -11.578125 C 9.941406 -11.785156 9.707031 -11.894531 9.4375 -11.90625 L 6.078125 -11.90625 L 6.078125 -1.28125 C 6.085938 -0.96875 6.203125 -0.703125 6.421875 -0.484375 C 6.640625 -0.273438 6.898438 -0.171875 7.203125 -0.171875 L 7.4375 -0.171875 L 7.4375 0 L 3.546875 0 L 3.546875 -0.171875 L 3.78125 -0.171875 C 4.09375 -0.171875 4.359375 -0.273438 4.578125 -0.484375 C 4.796875 -0.703125 4.910156 -0.960938 4.921875 -1.265625 L 4.921875 -11.90625 L 1.546875 -11.90625 C 1.265625 -11.894531 1.023438 -11.785156 0.828125 -11.578125 C 0.628906 -11.367188 0.53125 -11.125 0.53125 -10.84375 L 0.53125 -10.546875 L 0.359375 -10.53125 L 0.359375 -12.765625 C 0.535156 -12.691406 0.84375 -12.617188 1.28125 -12.546875 C 1.71875 -12.472656 2.117188 -12.4375 2.484375 -12.4375 L 8.484375 -12.4375 C 9.066406 -12.4375 9.550781 -12.476562 9.9375 -12.5625 C 10.320312 -12.65625 10.550781 -12.722656 10.625 -12.765625 L 10.625 -10.53125 L 10.453125 -10.546875 Z M 10.453125 -10.84375 "/></g></g></g><g fill="#ffffff" fill-opacity="1"><g transform="translate(128.584348, 42.81272)"><g><path d="M 1.296875 -0.171875 C 1.597656 -0.171875 1.859375 -0.28125 2.078125 -0.5 C 2.296875 -0.71875 2.414062 -0.984375 2.4375 -1.296875 L 2.4375 -11.140625 C 2.414062 -11.453125 2.296875 -11.710938 2.078125 -11.921875 C 1.859375 -12.140625 1.597656 -12.25 1.296875 -12.25 L 1.0625 -12.25 L 1.0625 -12.421875 L 4.953125 -12.421875 L 4.953125 -12.25 L 4.71875 -12.25 C 4.414062 -12.25 4.15625 -12.140625 3.9375 -11.921875 C 3.71875 -11.710938 3.597656 -11.453125 3.578125 -11.140625 L 3.578125 -1.296875 C 3.578125 -0.984375 3.691406 -0.71875 3.921875 -0.5 C 4.148438 -0.28125 4.414062 -0.171875 4.71875 -0.171875 L 4.953125 -0.171875 L 4.953125 0 L 1.0625 0 L 1.0625 -0.171875 Z M 1.296875 -0.171875 "/></g></g></g><g fill="#ffffff" fill-opacity="1"><g transform="translate(147.899018, 42.81272)"><g><path d="M 3.015625 -10.890625 C 4.191406 -12.078125 5.722656 -12.671875 7.609375 -12.671875 C 9.503906 -12.671875 11.039062 -12.078125 12.21875 -10.890625 C 13.40625 -9.703125 14 -8.140625 14 -6.203125 C 14 -4.273438 13.40625 -2.71875 12.21875 -1.53125 C 11.039062 -0.34375 9.503906 0.25 7.609375 0.25 C 5.722656 0.25 4.191406 -0.34375 3.015625 -1.53125 C 1.835938 -2.71875 1.25 -4.273438 1.25 -6.203125 C 1.25 -8.140625 1.835938 -9.703125 3.015625 -10.890625 Z M 3.984375 -1.90625 C 4.898438 -0.820312 6.113281 -0.28125 7.625 -0.28125 C 9.132812 -0.28125 10.347656 -0.820312 11.265625 -1.90625 C 12.179688 -3 12.640625 -4.4375 12.640625 -6.21875 C 12.640625 -7.382812 12.429688 -8.414062 12.015625 -9.3125 C 11.597656 -10.21875 11.007812 -10.914062 10.25 -11.40625 C 9.488281 -11.894531 8.609375 -12.140625 7.609375 -12.140625 C 6.109375 -12.140625 4.898438 -11.59375 3.984375 -10.5 C 3.066406 -9.414062 2.609375 -7.984375 2.609375 -6.203125 C 2.609375 -4.429688 3.066406 -3 3.984375 -1.90625 Z M 3.984375 -1.90625 "/></g></g></g><g fill="#ffffff" fill-opacity="1"><g transform="translate(176.087447, 42.81272)"><g><path d="M 13.8125 -12.25 C 13.507812 -12.25 13.253906 -12.144531 13.046875 -11.9375 C 12.835938 -11.726562 12.722656 -11.476562 12.703125 -11.1875 L 12.703125 -2.03125 C 12.703125 -1.34375 12.742188 -0.691406 12.828125 -0.078125 L 12.875 0.25 L 12.703125 0.25 L 3.03125 -10.078125 L 3.03125 -1.25 C 3.039062 -0.832031 3.222656 -0.519531 3.578125 -0.3125 C 3.742188 -0.21875 3.925781 -0.171875 4.125 -0.171875 L 4.453125 -0.171875 L 4.453125 0 L 0.796875 0 L 0.796875 -0.171875 L 1.140625 -0.171875 C 1.429688 -0.171875 1.679688 -0.273438 1.890625 -0.484375 C 2.109375 -0.691406 2.21875 -0.953125 2.21875 -1.265625 L 2.21875 -10.46875 C 2.21875 -11.195312 2.175781 -11.84375 2.09375 -12.40625 L 2.0625 -12.6875 L 2.234375 -12.6875 L 11.90625 -2.359375 L 11.90625 -11.171875 C 11.894531 -11.472656 11.78125 -11.726562 11.5625 -11.9375 C 11.351562 -12.144531 11.101562 -12.25 10.8125 -12.25 L 10.46875 -12.25 L 10.46875 -12.421875 L 14.125 -12.421875 L 14.125 -12.25 Z M 13.8125 -12.25 "/></g></g></g><g fill="#ffffff" fill-opacity="1"><g transform="translate(204.329102, 42.81272)"><g><path d="M 1.078125 -0.734375 C 1.046875 -0.890625 1.03125 -1.203125 1.03125 -1.671875 C 1.03125 -2.148438 1.117188 -2.65625 1.296875 -3.1875 L 1.453125 -3.1875 C 1.441406 -3.0625 1.4375 -2.929688 1.4375 -2.796875 C 1.4375 -2.078125 1.65625 -1.476562 2.09375 -1 C 2.53125 -0.519531 3.109375 -0.28125 3.828125 -0.28125 C 4.578125 -0.28125 5.191406 -0.503906 5.671875 -0.953125 C 6.148438 -1.410156 6.390625 -1.976562 6.390625 -2.65625 C 6.390625 -3.332031 6.160156 -3.882812 5.703125 -4.3125 L 2.296875 -7.46875 C 1.648438 -8.0625 1.328125 -8.773438 1.328125 -9.609375 C 1.328125 -10.453125 1.609375 -11.171875 2.171875 -11.765625 C 2.734375 -12.367188 3.492188 -12.671875 4.453125 -12.671875 C 4.898438 -12.671875 5.410156 -12.613281 5.984375 -12.5 L 6.671875 -12.5 L 6.671875 -10.3125 L 6.515625 -10.3125 C 6.515625 -10.863281 6.320312 -11.304688 5.9375 -11.640625 C 5.550781 -11.972656 5.054688 -12.140625 4.453125 -12.140625 C 3.847656 -12.140625 3.34375 -11.9375 2.9375 -11.53125 C 2.53125 -11.132812 2.328125 -10.632812 2.328125 -10.03125 C 2.328125 -9.425781 2.5625 -8.90625 3.03125 -8.46875 L 6.53125 -5.234375 C 7.125 -4.691406 7.421875 -3.945312 7.421875 -3 C 7.421875 -2.050781 7.117188 -1.269531 6.515625 -0.65625 C 5.910156 -0.0507812 5.101562 0.25 4.09375 0.25 C 3.570312 0.25 3.019531 0.164062 2.4375 0 C 1.851562 -0.15625 1.398438 -0.398438 1.078125 -0.734375 Z M 1.078125 -0.734375 "/></g></g></g><g clip-path="url(#fc76b7fc83)"><path fill="#ffffff" d="M 151.578125 16.921875 L 153.894531 16.921875 L 153.894531 22.15625 L 151.578125 22.15625 Z M 151.578125 16.921875 " fill-opacity="1" fill-rule="nonzero"/></g><g clip-path="url(#f04d33240f)"><g clip-path="url(#843877a38c)"><g clip-path="url(#21df99095a)"><path fill="#ffffff" d="M 172.816406 10.90625 L 161.996094 21.722656 C 162.367188 21.355469 162.714844 20.96875 163.046875 20.5625 C 163.371094 20.164062 163.671875 19.753906 163.957031 19.324219 C 164.234375 18.90625 164.492188 18.464844 164.726562 18.023438 C 164.957031 17.582031 165.167969 17.125 165.355469 16.664062 C 165.726562 15.746094 166.007812 14.800781 166.195312 13.828125 C 166.382812 12.863281 166.476562 11.890625 166.476562 10.90625 C 166.476562 9.921875 166.382812 8.949219 166.195312 7.984375 C 166.007812 7.011719 165.726562 6.066406 165.355469 5.148438 C 165.167969 4.6875 164.957031 4.230469 164.726562 3.789062 C 164.492188 3.34375 164.234375 2.90625 163.957031 2.484375 C 163.671875 2.058594 163.371094 1.644531 163.046875 1.246094 C 162.714844 0.84375 162.363281 0.457031 161.996094 0.0859375 Z M 172.816406 10.90625 " fill-opacity="1" fill-rule="nonzero"/></g></g></g><g clip-path="url(#dcd06dbf30)"><g clip-path="url(#379b407682)"><path stroke-linecap="butt" transform="matrix(1.048507, 0, 0, 1.048507, 143.469824, 0.0816139)" fill="none" stroke-linejoin="miter" d="M 8.835949 0.000398061 C 3.955495 0.000398061 -0.0010246 3.956918 -0.0010246 8.837371 C -0.0010246 13.714099 3.955495 17.670619 8.835949 17.670619 C 13.716402 17.670619 17.672922 13.714099 17.672922 8.837371 C 17.672922 3.956918 13.716402 0.000398061 8.835949 0.000398061 Z M 8.835949 0.000398061 " stroke="#ffffff" stroke-width="5.60564" stroke-opacity="1" stroke-miterlimit="4"/></g></g><path fill="#ffffff" d="M 156.597656 10.507812 L 156.460938 10.796875 L 156.320312 11.089844 L 155.875 12.03125 L 155.734375 12.320312 L 155.597656 12.613281 L 156.554688 13.027344 L 157.515625 10.964844 Z M 156.597656 10.507812 " fill-opacity="1" fill-rule="nonzero"/><g clip-path="url(#32f359e654)"><path fill="#ffffff" d="M 154.464844 13.324219 L 154.789062 13.324219 L 154.789062 12.683594 L 154.464844 12.683594 L 154.464844 12.121094 L 155.007812 12.355469 L 155.144531 12.066406 L 155.285156 11.773438 L 155.746094 10.800781 L 155.882812 10.511719 L 156.023438 10.21875 L 151.617188 8.023438 L 151.351562 8.609375 L 150.796875 9.832031 L 150.53125 10.417969 L 153.820312 11.84375 L 153.820312 12.683594 L 153.496094 12.683594 L 153.496094 13.324219 L 153.820312 13.324219 L 153.820312 14.800781 L 152.371094 16.785156 L 152.890625 17.164062 L 153.820312 15.890625 L 153.820312 17.179688 L 154.464844 17.179688 L 154.464844 15.871094 L 155.4375 17.167969 L 155.953125 16.78125 L 154.464844 14.800781 Z M 154.464844 13.324219 " fill-opacity="1" fill-rule="nonzero"/></g><g clip-path="url(#40b9693d98)"><path fill="#ffffff" d="M 149.609375 6.695312 L 148.214844 9.6875 L 149.8125 10.433594 L 149.925781 10.199219 L 149.941406 10.160156 L 150.007812 10.015625 L 150.078125 9.871094 L 150.910156 8.027344 L 151.042969 7.734375 L 151.179688 7.429688 Z M 149.609375 6.695312 " fill-opacity="1" fill-rule="nonzero"/></g><g clip-path="url(#06a16063cc)"><g clip-path="url(#a21176a6e1)"><g clip-path="url(#dec82a563a)"><path fill="#ffffff" d="M 132.273438 11.425781 L 142.566406 0.0859375 C 142.21875 0.472656 141.886719 0.875 141.574219 1.296875 C 141.269531 1.710938 140.988281 2.136719 140.726562 2.578125 C 140.46875 3.011719 140.230469 3.460938 140.019531 3.917969 C 139.808594 4.371094 139.617188 4.835938 139.453125 5.308594 C 139.125 6.242188 138.890625 7.203125 138.75 8.183594 C 138.609375 9.15625 138.5625 10.136719 138.613281 11.117188 C 138.660156 12.101562 138.800781 13.070312 139.03125 14.027344 C 139.269531 14.992188 139.59375 15.921875 140.011719 16.824219 C 140.21875 17.273438 140.453125 17.722656 140.707031 18.148438 C 140.960938 18.582031 141.242188 19.007812 141.539062 19.414062 C 141.84375 19.832031 142.164062 20.226562 142.507812 20.609375 C 142.859375 21 143.226562 21.371094 143.617188 21.722656 Z M 132.273438 11.425781 " fill-opacity="1" fill-rule="nonzero"/></g></g></g><g fill="#ffffff" fill-opacity="1"><g transform="translate(170.213022, 20.549671)"><g/></g></g><g fill="#ffffff" fill-opacity="1"><g transform="translate(177.249553, 20.549671)"><g><path d="M 15.75 -10.796875 C 17.359375 -11.53125 18.375 -13.03125 18.375 -15.015625 C 18.375 -17.578125 16.65625 -20.125 11.421875 -20.125 L 1.40625 -20.125 L 1.40625 0 L 11.625 0 C 16.90625 0 19.1875 -2.375 19.1875 -5.9375 C 19.1875 -7.9375 17.890625 -10.03125 15.75 -10.796875 Z M 11.03125 -15.71875 C 12.09375 -15.71875 12.75 -15.015625 12.75 -13.984375 C 12.75 -12.96875 12.09375 -12.265625 11.03125 -12.265625 L 7.0625 -12.265625 L 7.0625 -15.71875 Z M 7.0625 -4.4375 L 7.0625 -8.109375 L 11.3125 -8.109375 C 12.578125 -8.109375 13.34375 -7.484375 13.34375 -6.28125 C 13.34375 -5.0625 12.578125 -4.4375 11.3125 -4.4375 Z M 7.0625 -4.4375 "/></g></g></g><g fill="#ffffff" fill-opacity="1"><g transform="translate(196.858992, 20.549671)"><g><path d="M 17.296875 -20.125 L 1.40625 -20.125 L 1.40625 0 L 17.296875 0 L 17.296875 -5.03125 L 7.0625 -5.03125 L 7.0625 -7.71875 L 16.390625 -7.71875 L 16.390625 -12.46875 L 7.0625 -12.46875 L 7.0625 -15.09375 L 17.296875 -15.09375 Z M 17.296875 -20.125 "/></g></g></g></svg>